<?xml version="1.0" encoding="UTF-8"?>
<svg width="300px" height="200px" viewBox="0 0 300 200" version="1.1" xmlns="http://www.w3.org/2000/svg" xmlns:xlink="http://www.w3.org/1999/xlink">
    <!-- Generator: Sketch 51.3 (57544) - http://www.bohemiancoding.com/sketch -->
    <title>santa-claus-with-a-bag-of-gifts</title>
    <desc>Created with Sketch.</desc>
    <defs></defs>
    <g id="santa-claus-with-a-bag-of-gifts" stroke="none" stroke-width="1" fill="none" fill-rule="evenodd">
        <g id="Group" transform="translate(55.000000, 1.000000)" fill-rule="nonzero">
            <path d="M75.879563,115.532308 C57.8053632,140.92656 -3.285504,134.463615 1.35601371,65.3485385 C5.83601006,-1.36135165 97.4681527,-6.19612088 106.338981,87.1037033" id="Shape" fill="#AF8E77"></path>
            <path d="M127.484643,117.510484 C127.484643,117.510484 129.797222,105.755802 154.324235,92.4427912 C171.534676,83.1011429 165.085747,69.1599121 165.085747,69.1599121 C197.866105,96.700044 175.407887,119.049374 175.407887,119.049374 L176.558515,147.505659 C176.558515,147.505659 149.106388,153.362132 130.117555,152.172835 L127.39799,137.264407 L124.971637,152.057187 C106.340835,153.09867 78.6408521,146.762681 78.6408521,146.762681 L79.3015515,119.049385 C79.3015515,119.049385 69.5262501,109.091077 72.5569646,94.4327253 C72.5569646,94.4327253 58.0544146,88.1532967 63.4649417,74.8036374 C69.6531566,71.4120769 80.7123127,78.3117582 82.1675959,76.6736703 C82.1675959,76.6736703 86.7502958,82.2441758 107.809097,97.4973297 C127.329913,111.636484 127.484643,117.510484 127.484643,117.510484 Z" id="Shape" fill="#FB5956"></path>
            <path d="M127.033267,157.406022 C124.954078,157.406022 123.11546,158.757656 122.492116,160.744385 L120.707416,166.432637 L95.8372608,166.953407 C87.5183177,157.406011 87.2167241,148.859308 87.2167241,148.859308 L124.971604,152.057176 L127.484621,138.526956 L130.117511,152.172824 C146.300368,152.740176 167.443507,149.382451 167.443507,149.382451 C167.443507,149.382451 166.37489,157.406011 158.055958,166.953407 L133.185803,166.432637 L131.401103,160.744385 C130.777759,158.757656 128.939141,157.406022 126.859952,157.406022" id="Shape" fill="#C93E4F"></path>
            <path d="M100.465887,177.846626 L103.044008,187.617615 L91.0458843,191.479868 C89.6320393,191.934957 88.7595413,193.353391 88.9895523,194.822881 C89.2195634,196.292371 90.483588,197.375314 91.9686473,197.375198 L116.374985,197.375198 L118.340791,177.54722 L100.465887,177.846626 Z" id="Shape" fill="#FB5956"></path>
            <path d="M154.87059,177.846626 L152.292469,187.617615 L164.290593,191.479868 C165.704438,191.934957 166.576936,193.353391 166.346925,194.822881 C166.116914,196.292371 164.852889,197.375314 163.36783,197.375198 L138.961492,197.375198 L136.995686,177.54722 L154.87059,177.846626 Z" id="Shape" fill="#FB5956"></path>
            <path d="M113.684089,197.239451 L181.470303,197.239451" id="Shape" fill="#FFFFFF"></path>
            <path d="M181.470533,198.338407 L113.684473,198.338407 C113.078537,198.338407 112.58733,197.846412 112.58733,197.239505 C112.58733,196.632599 113.078537,196.140604 113.684473,196.140604 L181.470533,196.140604 C182.076469,196.140604 182.567676,196.632599 182.567676,197.239505 C182.567676,197.846412 182.076469,198.338407 181.470533,198.338407 Z" id="Shape" fill="#662059"></path>
            <path d="M78.0451035,197.239451 L109.371461,197.239451" id="Shape" fill="#FFFFFF"></path>
            <path d="M109.371966,198.338407 L78.0450048,198.338407 C77.4390695,198.338407 76.9478619,197.846412 76.9478619,197.239505 C76.9478619,196.632599 77.4390695,196.140604 78.0450048,196.140604 L109.371966,196.140604 C109.977901,196.140604 110.469109,196.632599 110.469109,197.239505 C110.469109,197.846412 109.977901,198.338407 109.371966,198.338407 Z" id="Shape" fill="#662059"></path>
            <path d="M65.0558647,197.239451 L72.9852672,197.239451" id="Shape" fill="#FFFFFF"></path>
            <path d="M72.9851794,198.338407 L65.0560731,198.338407 C64.4501379,198.338407 63.9589303,197.846412 63.9589303,197.239505 C63.9589303,196.632599 64.4501379,196.140604 65.0560731,196.140604 L72.9851794,196.140604 C73.5911147,196.140604 74.0823223,196.632599 74.0823223,197.239505 C74.0823223,197.846412 73.5911147,198.338407 72.9851794,198.338407 Z" id="Shape" fill="#662059"></path>
            <path d="M57.6779849,197.239451 L60.2428635,197.239451" id="Shape" fill="#FFFFFF"></path>
            <path d="M60.242677,198.338407 L57.6782153,198.338407 C57.07228,198.338407 56.5810725,197.846412 56.5810725,197.239505 C56.5810725,196.632599 57.07228,196.140604 57.6782153,196.140604 L60.242677,196.140604 C60.8486123,196.140604 61.3398199,196.632599 61.3398199,197.239505 C61.3398199,197.846412 60.8486123,198.338407 60.242677,198.338407 Z" id="Shape" fill="#662059"></path>
            <path d="M187.321728,197.239451 L189.886607,197.239451" id="Shape" fill="#FFFFFF"></path>
            <path d="M189.886607,198.338407 L187.321607,198.338407 C186.715672,198.338407 186.224464,197.846412 186.224464,197.239505 C186.224464,196.632599 186.715672,196.140604 187.321607,196.140604 L189.886607,196.140604 C190.492542,196.140604 190.983749,196.632599 190.983749,197.239505 C190.983749,197.846412 190.492542,198.338407 189.886607,198.338407 Z" id="Shape" fill="#662059"></path>
            <path d="M175.407898,119.049374 C175.407898,119.049374 169.93705,125.779989 167.868573,125.938956 C166.060372,126.077912 167.84629,119.630747 165.090926,119.839363 C153.745898,120.69833 136.876899,123.042758 135.1104,122.985681 L135.1104,135.516648 C137.796721,135.603462 142.508566,135.537648 142.508566,135.537648 L154.71846,134.227154 C165.227674,133.198055 176.664302,131.41144 176.664302,131.41144 L175.407898,119.049374 Z" id="Shape" fill="#FFFFFF"></path>
            <path d="M79.3014857,118.084121 C79.3014857,118.084121 87.4993371,120.651692 90.2546798,120.860308 C101.599707,121.719275 117.832463,123.199868 119.598983,123.142725 L119.598983,134.551352 C116.912662,134.638165 112.200817,134.572352 112.200817,134.572352 L99.9908901,133.261901 C89.4816768,132.232802 78.0450487,130.446187 78.0450487,130.446187 L79.3014857,118.084121 Z" id="Shape" fill="#FFFFFF"></path>
            <path d="M145.682326,121.641451 C145.682326,121.641451 135.918577,124.811231 141.349544,133.156187 C146.433342,140.967692 158.507355,130.668077 158.507355,130.668077 C158.507355,130.668077 155.965462,126.61767 152.499237,120.194879 C149.033011,113.772088 142.100517,117.128143 142.447214,122.972308" id="Shape" fill="#C93E4F"></path>
            <path d="M79.2562505,120.187648 C78.9353937,120.188417 78.6304049,120.04794 78.4221477,119.803462 C75.3865702,116.307256 73.1374732,112.19786 71.8275072,107.754187 C71.7145366,107.375898 71.8128764,106.965985 72.0851113,106.680405 C72.3573462,106.394825 72.7616214,106.277486 73.1441225,106.373032 C73.5266236,106.468578 73.8285427,106.762318 73.9350089,107.142495 C75.1583547,111.285149 77.2572811,115.115675 80.0893001,118.374033 C80.3678623,118.699891 80.431639,119.158319 80.2526284,119.548039 C80.0736178,119.93776 79.6845508,120.187515 79.2562505,120.187648 Z" id="Shape" fill="#662059"></path>
            <path d="M71.8559013,103.12678 C71.2893961,103.126326 70.8164595,102.693794 70.7646501,102.128758 C70.473167,99.4434035 70.620087,96.72843 71.1996453,94.0903626 C71.3573516,93.5058432 71.9574532,93.1592709 72.5415297,93.315394 C73.1256063,93.471517 73.4735065,94.0714892 73.3194679,94.656989 C72.8154547,97.0457939 72.6905297,99.4992424 72.9492919,101.927011 C73.0048735,102.531535 72.5606951,103.066746 71.9571456,103.122495 C71.9233975,103.125703 71.8891118,103.12678 71.8559013,103.12678 Z" id="Shape" fill="#662059"></path>
            <path d="M126.879108,121.959407 C126.567803,121.959175 126.271211,121.826679 126.063039,121.594846 C125.854866,121.363014 125.754659,121.05361 125.787319,120.743527 C126.77839,111.473692 117.318747,105.162527 107.304104,98.4805824 C100.6516,94.0425934 93.773568,89.4532857 90.1799973,83.8305385 C89.8533618,83.3193504 90.0023082,82.6397358 90.5126784,82.3125769 C91.0230486,81.985418 91.7015757,82.1346031 92.0282112,82.6457912 C95.3732133,87.8800549 102.056251,92.338978 108.520177,96.6514176 C118.638753,103.402571 129.102325,110.383385 127.968746,120.977484 C127.909142,121.535452 127.439363,121.958792 126.879108,121.959407 Z" id="Shape" fill="#662059"></path>
            <path d="M132.688973,120.908363 L121.933681,120.908363 C121.291545,120.908264 120.675673,121.163682 120.221566,121.618421 C119.76746,122.07316 119.512322,122.689966 119.512287,123.333132 L119.512287,133.705088 C119.51222,134.348331 119.767309,134.965248 120.221423,135.42009 C120.675537,135.874932 121.291467,136.13043 121.933681,136.130363 L132.688973,136.130363 C133.331187,136.13043 133.947117,135.874932 134.401231,135.42009 C134.855345,134.965248 135.110434,134.348331 135.110367,133.705088 L135.110367,123.333132 C135.110332,122.689966 134.855194,122.07316 134.401088,121.618421 C133.946981,121.163682 133.331109,120.908264 132.688973,120.908363 Z" id="Shape" fill="#F4C95E"></path>
            <path d="M78.9948672,136.664725 L78.9680859,136.664725 C78.3625265,136.65002 77.8834161,136.146605 77.8977243,135.540066 L78.2914779,119.023286 C78.3206522,118.423119 78.814423,117.951211 79.4143378,117.950143 C80.0198973,117.964848 80.4990077,118.468263 80.4846994,119.074802 L80.0909129,135.591582 C80.0768772,136.187947 79.5904425,136.664217 78.9948672,136.664725 Z" id="Shape" fill="#662059"></path>
            <path d="M120.645537,153.269505 C102.400183,153.269505 78.7387502,147.893044 78.482677,147.834022 C77.9746022,147.717678 77.6185039,147.25919 77.6308882,146.737319 L77.7412498,142.09811 C77.778477,141.501664 78.267528,141.034267 78.8641097,141.024967 C79.4696692,141.039673 79.9487796,141.543087 79.9344713,142.149626 L79.8460745,145.885242 C84.5946514,146.917604 107.655541,151.69633 124.037683,151.003077 L126.403397,137.080088 C126.468065,136.692134 126.7349,136.368422 127.102987,136.231378 C127.471073,136.094333 127.884225,136.164875 128.186192,136.416325 C128.48816,136.667775 128.632848,137.06175 128.565537,137.449253 L126.05308,152.241495 C125.967611,152.746899 125.544095,153.125644 125.033077,153.15367 C123.61875,153.233022 122.149829,153.269505 120.645537,153.269505 Z" id="Shape" fill="#662059"></path>
            <path d="M106.835899,135.09578 C106.814471,135.09578 106.794108,135.094681 106.772681,135.093582 C97.7424503,134.443864 88.7545254,133.299248 79.8492891,131.664879 C79.2550781,131.551234 78.8648997,130.977201 78.9771684,130.381811 C79.089437,129.78642 79.6617654,129.394463 80.2564279,129.505714 C89.0682526,131.122332 97.9616888,132.255476 106.896965,132.900077 C107.489821,132.933393 107.948582,133.433152 107.932048,134.027661 C107.915513,134.622169 107.429686,135.095573 106.835899,135.09578 Z" id="Shape" fill="#662059"></path>
            <path d="M115.875544,135.718253 C113.973756,135.718253 112.300186,135.694648 112.185545,135.693571 C111.793574,135.688205 111.434236,135.473796 111.24289,135.131112 C111.051545,134.788427 111.057262,134.369528 111.257888,134.03221 C111.458514,133.694893 111.82357,133.490402 112.215541,133.495769 C112.26376,133.495769 116.930896,133.561231 119.563403,133.476451 C119.575186,133.475352 119.58697,133.475352 119.599828,133.475352 C120.19803,133.476634 120.684898,133.957747 120.694248,134.556835 C120.703599,135.155924 120.231983,135.652045 119.634114,135.672055 C118.551969,135.707484 117.161253,135.718253 115.875544,135.718253 Z" id="Shape" fill="#662059"></path>
            <path d="M119.292321,124.246286 C105.830391,123.673982 92.4143725,122.300075 79.1153554,120.131846 C78.7279761,120.066353 78.4051334,119.798383 78.2689424,119.429295 C78.1327514,119.060207 78.2040051,118.646352 78.4557518,118.344269 C78.7074984,118.042187 79.1013027,117.897998 79.4882085,117.966242 C92.7547562,120.115125 106.136459,121.477171 119.563392,122.045264 C119.855791,122.029424 120.141961,122.133908 120.355588,122.334506 C120.569216,122.535103 120.691758,122.814402 120.694821,123.107681 C120.70439,123.398896 120.597969,123.681973 120.399006,123.89454 C120.200042,124.107107 119.924864,124.23172 119.634103,124.240923 C119.53875,124.244132 119.42411,124.246286 119.292321,124.246286 Z" id="Shape" fill="#662059"></path>
            <path d="M127.484467,137.669187 L122.02018,137.669187 C120.077803,137.667115 118.503711,136.090501 118.501643,134.145011 L118.501643,123.773055 C118.503711,121.827565 120.077803,120.250951 122.02018,120.248879 L126.878032,120.248879 C127.483968,120.248879 127.975175,120.740874 127.975175,121.34778 C127.975175,121.954687 127.483968,122.446681 126.878032,122.446681 L122.02018,122.446681 C121.289019,122.447172 120.696419,123.040722 120.695929,123.773055 L120.695929,134.145011 C120.696419,134.877343 121.289019,135.470894 122.02018,135.471385 L127.484467,135.471385 C128.090402,135.471385 128.58161,135.96338 128.58161,136.570286 C128.58161,137.177192 128.090402,137.669187 127.484467,137.669187 Z" id="Shape" fill="#662059"></path>
            <path d="M129.747324,133.383088 L125.049106,133.383088 C123.859437,133.381926 122.895144,132.416564 122.893396,131.224989 C122.893396,130.618083 123.384604,130.126088 123.990539,130.126088 C124.596474,130.126088 125.087682,130.618083 125.087682,131.224989 L129.747324,131.185286 L129.707685,126.693099 L125.049117,126.732802 C125.052865,127.020162 124.940475,127.296837 124.737488,127.499948 C124.534501,127.703059 124.258159,127.815356 123.971262,127.811319 C123.680246,127.806307 123.403149,127.685651 123.200988,127.475919 C122.998828,127.266188 122.888179,126.984578 122.893407,126.693099 C122.895155,125.501523 123.859448,124.536162 125.049117,124.535 L129.747335,124.535 C130.936797,124.536248 131.900736,125.501731 131.901981,126.693099 L131.901981,131.224967 C131.900748,132.416348 130.936799,133.381846 129.747324,133.383088 Z" id="Shape" fill="#662059"></path>
            <path d="M96.2892837,167.873945 C95.9721168,167.874292 95.6703801,167.736885 95.4621367,167.497275 C94.3751814,166.251332 93.3536248,164.949638 92.4016018,163.597462 C92.053071,163.101091 92.1722748,162.41571 92.667851,162.066621 C93.1634273,161.717532 93.8477113,161.836926 94.1962423,162.333297 C95.1044617,163.622965 96.0789894,164.864482 97.1158821,166.052824 C97.3985506,166.377507 97.4657404,166.837674 97.2877398,167.229837 C97.1097392,167.621999 96.7193809,167.873821 96.2892837,167.873945 Z" id="Shape" fill="#662059"></path>
            <path d="M90.127499,158.760791 C89.7111737,158.76094 89.3305417,158.52534 89.144459,158.152319 C87.6190749,155.283409 86.5974127,152.173217 86.1241015,148.957604 C86.0728288,148.355403 86.5167062,147.824762 87.1176323,147.769871 C87.7185584,147.71498 88.2509484,148.156444 88.3092809,148.758 C88.7699738,151.698571 89.7159252,154.541879 91.1083886,157.171462 C91.2382508,157.432229 91.2593349,157.733995 91.167,158.010337 C91.0746652,158.286679 90.8764798,158.514945 90.6160677,158.64489 C90.4645657,158.721437 90.2971851,158.761144 90.127499,158.760791 Z" id="Shape" fill="#662059"></path>
            <path d="M119.209827,178.510967 L99.2769353,178.510967 C96.4473704,178.50786 94.1543284,176.211143 94.1512265,173.377044 L94.1512265,170.288527 C94.1543285,167.454424 96.4473771,165.157705 99.2769463,165.154604 L107.808735,165.154604 C108.41467,165.154604 108.905878,165.646599 108.905878,166.253505 C108.905878,166.860412 108.41467,167.352407 107.808735,167.352407 L99.2769463,167.352407 C97.658606,167.353963 96.3470715,168.667605 96.3455232,170.288538 L96.3455232,173.377055 C96.3470716,174.997993 97.6586127,176.311636 99.2769573,176.313187 L119.209849,176.313187 C120.828189,176.311636 122.139728,174.998 122.141283,173.377066 L122.141283,170.288549 C122.139728,168.66762 120.828196,167.353985 119.20986,167.352429 L114.300573,167.352429 C113.694638,167.352429 113.20343,166.860434 113.20343,166.253527 C113.20343,165.646621 113.694638,165.154626 114.300573,165.154626 L119.20986,165.154626 C122.039433,165.157727 124.332484,167.454452 124.335579,170.28856 L124.335579,173.377077 C124.332459,176.211181 122.039396,178.507884 119.209827,178.510967 Z" id="Shape" fill="#662059"></path>
            <path d="M121.158758,167.352396 C120.809377,167.352516 120.480836,167.18593 120.274096,166.90383 C120.067356,166.621731 120.007148,166.257863 120.111974,165.924044 L121.897026,160.236374 C122.657264,157.786997 124.92363,156.120735 127.484522,156.128374 C128.090457,156.128374 128.581665,156.620368 128.581665,157.227275 C128.581665,157.834181 128.090457,158.326176 127.484522,158.326176 C125.883053,158.321373 124.465802,159.363488 123.990594,160.895286 L122.205542,166.582956 C122.061533,167.040675 121.637898,167.352068 121.158758,167.352396 Z" id="Shape" fill="#662059"></path>
            <path d="M115.900186,198.338407 L91.4935735,198.338407 C89.4680102,198.338497 87.7439748,196.861356 87.4302978,194.857021 C87.1166208,192.852686 88.3067112,190.918023 90.2351506,190.29733 L105.354075,185.430615 C105.931017,185.245106 106.548865,185.563173 106.734078,186.141039 C106.919291,186.718904 106.601733,187.337743 106.024792,187.523253 L90.9069312,192.389967 C90.0074002,192.679371 89.4521976,193.581712 89.5984195,194.516622 C89.7446415,195.451532 90.5487428,196.140594 91.4935406,196.140615 L114.906931,196.140615 L115.354785,191.621604 C115.423301,191.022397 115.954727,190.586122 116.554785,190.636462 C116.844379,190.665124 117.110731,190.807881 117.295202,191.033306 C117.479674,191.258731 117.567142,191.548344 117.538352,191.838385 L116.991974,197.347912 C116.936217,197.910019 116.464157,198.338283 115.900186,198.338407 Z" id="Shape" fill="#662059"></path>
            <path d="M116.963043,187.628407 C116.926618,187.628407 116.890181,187.626209 116.853756,187.623044 C116.564162,187.594382 116.29781,187.451624 116.113339,187.226199 C115.928867,187.000774 115.841399,186.711162 115.87019,186.421121 L116.774477,177.303681 C116.836566,176.701762 117.372819,176.263387 117.974028,176.323074 C118.575237,176.382761 119.015136,176.918046 118.958043,177.520462 L118.053756,186.637912 C117.998338,187.19976 117.526722,187.628041 116.963043,187.628407 Z" id="Shape" fill="#662059"></path>
            <path d="M102.526607,188.424681 C102.029114,188.424339 101.594153,188.088676 101.466964,187.606945 L98.9298213,177.99156 C98.7760087,177.405263 99.1252243,176.804941 99.7103119,176.649851 C100.295399,176.494761 100.895375,176.843479 101.051246,177.429231 L103.588389,187.044615 C103.662864,187.326387 103.622522,187.626251 103.47624,187.878228 C103.329957,188.130205 103.089719,188.31365 102.808386,188.388198 C102.716404,188.41238 102.621704,188.424641 102.526607,188.424681 Z" id="Shape" fill="#662059"></path>
            <path d="M167.260186,127.494692 C166.786551,127.495014 166.366177,127.190873 166.217644,126.74041 C166.069111,126.289948 166.225952,125.794868 166.606618,125.512593 C181.491972,114.487099 185.564478,101.772462 178.712689,87.7228462 C178.446705,87.1775772 178.672403,86.519581 179.216799,86.2531704 C179.761196,85.9867598 180.418139,86.212819 180.684123,86.7580879 C185.760603,97.1676044 187.665551,112.646648 167.911625,127.278967 C167.72335,127.419287 167.494864,127.494951 167.260186,127.494692 Z" id="Shape" fill="#662059"></path>
            <path d="M177.722683,84.7427253 C177.340482,84.7435177 176.985538,84.5446099 176.786249,84.217956 C173.515912,79.0451423 169.48973,74.3926734 164.841962,70.4156923 C164.570891,70.177989 164.388743,70.0154066 164.310539,69.936 C163.883664,69.5066611 163.884444,68.8122105 164.312282,68.3838347 C164.740121,67.9554589 165.433461,67.9549183 165.861965,68.3826264 C165.926246,68.4464835 166.074108,68.5741868 166.289467,68.7641319 C171.102939,72.8864386 175.271821,77.7086128 178.656965,83.0697033 C178.864277,83.4086569 178.872683,83.8333199 178.67895,84.1802382 C178.485217,84.5271566 178.119545,84.7422488 177.722683,84.7427253 Z" id="Shape" fill="#662059"></path>
            <path d="M146.719828,137.18089 C146.315103,137.1818 145.910839,137.153466 145.510184,137.09611 C143.402885,136.801524 141.538586,135.575835 140.430544,133.756484 C138.661621,131.038209 138.176256,128.497 138.986255,126.202637 C139.470162,124.910535 140.283149,123.767717 141.344464,122.887692 C141.085691,119.724972 143.03549,116.80023 146.051207,115.827473 C148.288347,115.190022 151.408347,115.863956 153.464426,119.672527 C156.870495,125.984769 159.410853,130.04233 159.43657,130.08311 C159.726647,130.545422 159.634031,131.150909 159.219072,131.505033 C158.929821,131.751868 152.494826,137.18089 146.719828,137.18089 Z M146.023395,122.685912 C145.983755,122.699868 142.079462,124.014484 141.051966,126.944154 C140.486257,128.557088 140.895536,130.445824 142.269115,132.556703 C143.034314,133.844948 144.342789,134.714846 145.825185,134.920846 C149.912689,135.512154 155.159468,131.872044 157.063395,130.414703 C156.14411,128.900495 154.075184,125.426725 151.533795,120.717758 C150.313443,118.456637 148.494149,117.417835 146.652365,117.940462 C145.123275,118.452004 143.984468,119.744108 143.667368,121.327275 C144.206434,121.0403 144.76707,120.795967 145.344154,120.596505 C145.919742,120.410126 146.537329,120.725632 146.724628,121.301747 C146.911927,121.877861 146.598234,122.497105 146.023439,122.685923 L146.023395,122.685912 Z" id="Shape" fill="#662059"></path>
            <path d="M159.547679,111.743645 C162.621474,111.743645 165.113277,114.239441 165.113277,117.318161 L165.113277,125.427612 C165.113277,128.506332 162.621474,131.002128 159.547679,131.002128 C156.473891,131.002128 153.982093,128.506337 153.982093,125.427623 L153.982093,117.31815 C153.982093,114.239436 156.473891,111.743645 159.547679,111.743645 Z" id="Shape" fill="#FFFFFF" transform="translate(159.547685, 121.372887) rotate(149.999960) translate(-159.547685, -121.372887) "></path>
            <path d="M161.58268,131.556549 C159.198851,131.559752 156.994635,130.288126 155.801253,128.221209 L151.753399,121.198549 C150.555052,119.133245 150.550194,116.583922 151.74066,114.514051 C152.931125,112.44418 155.135343,111.169461 157.520269,111.171651 C159.905195,111.173841 162.107076,112.452606 163.293751,114.524659 L167.341605,121.54733 C168.225649,123.080026 168.465378,124.901767 168.008022,126.611549 C167.550665,128.321331 166.433713,129.779004 164.903029,130.663703 C163.8941,131.249093 162.748666,131.557102 161.58268,131.556549 Z M157.516613,113.383901 C155.921178,113.386985 154.448333,114.241547 153.651949,115.626222 C152.855565,117.010898 152.856389,118.715746 153.654111,120.099648 L157.701965,127.122319 C158.937248,129.261196 161.66859,129.993983 163.805897,128.759934 C164.832263,128.166478 165.581163,127.188892 165.887797,126.042302 C166.19443,124.895711 166.03367,123.674073 165.440892,122.64622 L161.393039,115.62356 C160.592057,114.238092 159.115036,113.384723 157.516613,113.383901 Z" id="Shape" fill="#662059"></path>
            <path d="M127.917323,121.959407 C127.357068,121.958792 126.887288,121.535452 126.827685,120.977484 C125.691966,110.364077 136.122328,103.358582 145.324833,97.1767253 C145.828102,96.838897 146.509507,96.9736667 146.846795,97.4777418 C147.184083,97.9818169 147.049529,98.6643145 146.54626,99.0021429 C136.046296,106.055396 128.087676,112.134736 129.009112,120.743527 C129.041772,121.05361 128.941564,121.363014 128.733392,121.594846 C128.52522,121.826679 128.228627,121.959175 127.917323,121.959407 Z" id="Shape" fill="#662059"></path>
            <path d="M149.108034,97.055989 C148.625664,97.0563389 148.19965,96.7410841 148.058275,96.2791575 C147.916901,95.8172308 148.093334,95.3170034 148.49303,95.0465275 C149.552673,94.3291319 150.603747,93.6085165 151.632318,92.8803846 C152.127303,92.5306237 152.811619,92.6487442 153.161164,93.1442801 C153.510708,93.639816 153.393251,94.3253105 152.89875,94.6757582 C151.85732,95.4124725 150.793388,96.1416923 149.720898,96.8676593 C149.540035,96.990463 149.326537,97.0560698 149.108034,97.055989 Z" id="Shape" fill="#662059"></path>
            <path d="M157.30447,91.0415495 C156.842492,91.0421046 156.429683,90.7526899 156.272056,90.3177389 C156.114429,89.8827878 156.245774,89.3955383 156.600543,89.0991538 C162.250181,84.3724835 164.930896,80.0053187 165.036968,75.3548462 C165.169821,69.5008352 162.054111,61.0868352 146.455186,54.2482527 C146.000903,54.0491868 145.694471,53.9096703 145.564833,53.8356264 C145.039626,53.5343089 144.857217,52.8639254 145.157162,52.3373668 C145.457108,51.8108082 146.126108,51.6269718 146.652332,51.9265055 C146.759479,51.9855275 146.996264,52.0864066 147.334832,52.2344945 C164.046972,59.561967 167.379116,68.878978 167.231265,75.4053187 C167.10912,80.7361648 164.177697,85.6232747 158.006268,90.7861758 C157.809649,90.9514018 157.561125,91.0418359 157.30447,91.0415495 Z" id="Shape" fill="#662059"></path>
            <path d="M99.8501815,58.5655055 C99.3679392,58.5659739 98.9419289,58.2509878 98.8003337,57.7892625 C98.6587384,57.3275372 98.834759,56.8273367 99.2341138,56.5565824 C101.799291,54.8316944 104.533878,53.3741103 107.395189,52.2065824 C107.711265,52.0735165 107.933041,51.9833736 108.041264,51.9254176 C108.57134,51.6380542 109.233525,51.8278245 109.531622,52.3525275 C109.826676,52.8750219 109.644711,53.5381074 109.124484,53.8361538 C108.990555,53.9128791 108.689488,54.045956 108.245914,54.2326813 C105.5179,55.3450505 102.910444,56.7335734 100.464132,58.3766374 C100.282961,58.4997073 100.06909,58.5654999 99.8501815,58.5655055 Z" id="Shape" fill="#662059"></path>
            <path d="M134.970536,153.398286 C133.227319,153.398286 131.583755,153.355363 130.05696,153.269505 C129.553229,153.241828 129.133468,152.87323 129.040172,152.376648 L126.233033,137.468505 C126.12196,136.87289 126.51329,136.299644 127.107728,136.187196 C127.702166,136.074747 128.27528,136.465551 128.388743,137.060714 L131.036248,151.117857 C133.359108,151.219802 135.94018,151.225176 138.725892,151.138242 C138.737675,151.137143 138.749458,151.137143 138.762317,151.137143 C139.360519,151.138425 139.847386,151.619538 139.856737,152.218627 C139.866087,152.817715 139.394472,153.313836 138.796603,153.333846 C137.475533,153.376806 136.200177,153.398286 134.970536,153.398286 Z" id="Shape" fill="#662059"></path>
            <path d="M143.980186,153.071 C143.388931,153.070191 142.904624,152.600322 142.884982,152.008446 C142.865341,151.41657 143.317428,150.915527 143.907324,150.875396 C146.13911,150.725154 148.495181,150.52233 150.908039,150.273363 C151.509762,150.213354 152.046593,150.652124 152.108575,151.254601 C152.170557,151.857078 151.734338,152.396276 151.133041,152.460429 C148.694466,152.711549 146.312689,152.916473 144.055186,153.068901 C144.029469,153.069901 144.004827,153.071 143.980186,153.071 Z" id="Shape" fill="#662059"></path>
            <path d="M155.206612,151.995681 C154.625591,151.995028 154.14584,151.540755 154.112586,150.959756 C154.079333,150.378758 154.504112,149.872548 155.081253,149.805396 C164.935186,148.66144 172.834823,147.141846 175.424475,146.618154 L174.311259,119.093044 C174.292546,118.699 174.48618,118.325153 174.818585,118.113554 C175.150991,117.901956 175.571141,117.88509 175.919387,118.069364 C176.267634,118.253637 176.490519,118.610764 176.503351,119.005044 L177.654067,147.461648 C177.675623,147.995372 177.31074,148.467262 176.78942,148.579868 C176.698357,148.599187 167.480854,150.579143 155.334067,151.988176 C155.291778,151.993316 155.249211,151.995822 155.206612,151.995681 Z" id="Shape" fill="#662059"></path>
            <path d="M153.335896,135.214956 C152.746571,135.214198 152.263114,134.747258 152.240938,134.157406 C152.218763,133.567554 152.665791,133.06552 153.253391,133.020374 C163.947319,132.203714 169.231609,131.380604 169.284107,131.372022 C169.671484,131.311061 170.061906,131.461726 170.308304,131.767261 C170.554702,132.072797 170.619643,132.486787 170.478663,132.853283 C170.337684,133.21978 170.012202,133.483105 169.624825,133.544066 C169.572326,133.551582 164.200177,134.388626 153.42054,135.211736 C153.391609,135.213857 153.363752,135.214956 153.335896,135.214956 Z" id="Shape" fill="#662059"></path>
            <path d="M138.936971,135.719286 C137.671614,135.719286 136.275544,135.708549 135.161253,135.672033 C134.563383,135.652023 134.091768,135.155902 134.101118,134.556813 C134.110469,133.957725 134.597337,133.476612 135.195538,133.47533 C135.208397,133.47533 135.22018,133.47533 135.231963,133.476429 C137.863395,133.561209 142.264825,133.498967 142.307679,133.498967 C142.600216,133.489217 142.884122,133.5991 143.094101,133.803342 C143.304079,134.007583 143.422056,134.288604 143.420895,134.581769 C143.429734,135.18866 142.945744,135.68784 142.339825,135.696769 C142.232678,135.697824 140.714463,135.719286 138.936971,135.719286 Z" id="Shape" fill="#662059"></path>
            <path d="M138.920898,124.287066 C137.634114,124.287066 136.243397,124.27633 135.161253,124.240912 C134.563383,124.220902 134.091768,123.724781 134.101118,123.125693 C134.110469,122.526604 134.597337,122.045491 135.195538,122.044209 C135.208397,122.044209 135.22018,122.044209 135.231963,122.045308 C137.86232,122.127945 142.531606,122.063549 142.579825,122.064626 L142.594823,122.064626 C143.200759,122.060478 143.695323,122.54911 143.699465,123.156016 C143.703607,123.762923 143.215756,124.25828 142.609821,124.262429 C142.495181,124.263451 140.82161,124.287066 138.920898,124.287066 Z" id="Shape" fill="#662059"></path>
            <path d="M135.196613,124.871923 C134.905581,124.872092 134.626421,124.75637 134.42063,124.550249 C134.214839,124.344129 134.099302,124.064521 134.099471,123.773022 C134.09898,123.04069 133.50638,122.447139 132.775219,122.446648 L127.310844,122.446648 C126.704909,122.446648 126.213701,121.954654 126.213701,121.347747 C126.213701,120.740841 126.704909,120.248846 127.310844,120.248846 L132.775131,120.248846 C134.717509,120.250918 136.2916,121.827532 136.293669,123.773022 C136.293837,124.064505 136.178312,124.3441 135.97254,124.550218 C135.766769,124.756336 135.48763,124.872069 135.196613,124.871923 Z" id="Shape" fill="#662059"></path>
            <path d="M132.775186,137.669187 L127.310844,137.669187 C126.704909,137.669187 126.213701,137.177192 126.213701,136.570286 C126.213701,135.963379 126.704909,135.471385 127.310844,135.471385 L132.775131,135.471385 C133.506292,135.470894 134.098893,134.877343 134.099383,134.145011 L134.099383,128.518473 C134.099383,127.911566 134.59059,127.419571 135.196526,127.419571 C135.802461,127.419571 136.293669,127.911566 136.293669,128.518473 L136.293669,134.144978 C136.291619,136.090459 134.717555,137.667085 132.775186,137.669187 Z" id="Shape" fill="#662059"></path>
            <path d="M108.732705,50.4758901 L108.732705,73.6458352 C108.732705,92.0773736 117.225688,94.7356813 117.225688,94.7356813 L119.614332,91.8115055 L126.99253,97.9256044 L135.66844,91.8115055 L137.131052,94.3368901 C137.131052,94.3368901 146.154821,91.2798462 146.154821,75.330022 L146.154821,50.4303407" id="Shape" fill="#F2DDD7"></path>
            <path d="M159.546964,113.771308 C159.151331,113.771078 158.78647,113.557498 158.592095,113.212353 C158.39772,112.867208 158.403947,112.443973 158.608391,112.104714 L162.507319,105.623989 C162.709301,105.286665 163.075857,105.083163 163.4685,105.090368 C163.861143,105.097573 164.220011,105.314386 164.409521,105.658894 C164.599032,106.003401 164.590292,106.42308 164.386604,106.759374 L160.487676,113.240099 C160.289033,113.57038 159.931925,113.772034 159.546964,113.771308 Z" id="Shape" fill="#662059"></path>
            <path d="M158.507685,167.873945 C158.077484,167.87404 157.686923,167.622297 157.508783,167.230084 C157.330642,166.837872 157.397797,166.377571 157.680538,166.052813 C159.804765,163.639213 161.655681,160.997481 163.199462,158.17589 C163.488016,157.64265 164.153286,157.444319 164.686005,157.732719 C165.218724,158.021119 165.417506,158.687227 165.130181,159.221132 C163.509089,162.185495 161.565475,164.961085 159.334821,167.497231 C159.126454,167.736675 158.824807,167.874058 158.507685,167.873945 Z" id="Shape" fill="#662059"></path>
            <path d="M165.883392,156.142319 C165.519345,156.142435 165.178955,155.961653 164.974795,155.65976 C164.770634,155.357866 164.729301,154.974193 164.864464,154.635626 C165.593859,152.92878 166.093244,151.132306 166.349469,149.293505 C166.397993,148.688377 166.927097,148.237223 167.531257,148.285824 C168.135417,148.334425 168.585849,148.864377 168.537326,149.469505 C168.270124,151.529344 167.719922,153.542299 166.902341,155.45122 C166.735888,155.868726 166.332236,156.142502 165.883392,156.142319 Z" id="Shape" fill="#662059"></path>
            <path d="M155.519484,178.510967 L135.585496,178.510967 C132.755931,178.50786 130.462889,176.211143 130.459787,173.377044 L130.459787,170.288527 C130.462889,167.454424 132.755938,165.157705 135.585507,165.154604 L155.519484,165.154604 C158.349058,165.157705 160.642108,167.45443 160.645204,170.288538 L160.645204,173.377055 C160.642096,176.211154 158.349049,178.507866 155.519484,178.510967 Z M135.585496,167.352396 C133.967156,167.353952 132.655621,168.667594 132.654073,170.288527 L132.654073,173.377044 C132.655621,174.997982 133.967162,176.311625 135.585507,176.313176 L155.519484,176.313176 C157.137825,176.311625 158.449364,174.997989 158.450918,173.377055 L158.450918,170.288538 C158.449364,168.667609 157.137831,167.353974 155.519495,167.352418 L135.585496,167.352418 L135.585496,167.352396 Z" id="Shape" fill="#662059"></path>
            <path d="M133.637683,167.352396 C133.15854,167.352066 132.734905,167.040668 132.590899,166.582945 L130.805848,160.895275 C130.33016,159.363355 128.912572,158.321312 127.310844,158.326165 C126.704909,158.326165 126.213701,157.83417 126.213701,157.227264 C126.213701,156.620357 126.704909,156.128363 127.310844,156.128363 C129.871995,156.120675 132.138698,157.786864 132.899416,160.236363 L134.684467,165.924033 C134.789298,166.257853 134.729092,166.621725 134.522351,166.903827 C134.315611,167.185929 133.987067,167.352517 133.637683,167.352396 Z" id="Shape" fill="#662059"></path>
            <path d="M163.30232,198.338407 L138.896256,198.338407 C138.332277,198.338281 137.860214,197.910006 137.804467,197.34789 L135.838387,177.520418 C135.781295,176.918002 136.221193,176.382717 136.822403,176.32303 C137.423612,176.263343 137.959864,176.701718 138.021954,177.303637 L139.889456,196.14056 L163.302309,196.14056 C164.247491,196.14107 165.052147,195.451827 165.198298,194.516515 C165.344449,193.581204 164.788521,192.678675 163.88838,192.389912 L148.77052,187.523198 C148.397304,187.403194 148.116358,187.092878 148.03351,186.709144 C147.950663,186.32541 148.0785,185.926556 148.368868,185.662826 C148.659236,185.399095 149.068021,185.310556 149.441236,185.43056 L164.560161,190.297275 C166.488678,190.917791 167.678944,192.85238 167.365408,194.856757 C167.051871,196.861133 165.327902,198.338398 163.30232,198.338407 Z" id="Shape" fill="#662059"></path>
            <path d="M152.268749,188.424681 C152.173647,188.424642 152.078944,188.412381 151.986959,188.388198 C151.705625,188.31365 151.465387,188.130205 151.319105,187.878228 C151.172822,187.626251 151.13248,187.326387 151.206956,187.044615 L153.744099,177.429231 C153.89997,176.843479 154.499945,176.494761 155.085033,176.649851 C155.67012,176.804941 156.019336,177.405263 155.865523,177.99156 L153.32838,187.606945 C153.201193,188.088672 152.766237,188.424334 152.268749,188.424681 Z" id="Shape" fill="#662059"></path>
            <path d="M140.21873,71.4012527 C140.21873,66.8933956 146.550341,67.1915934 146.550341,64.6771868 L146.550341,75.7534176 C146.550341,91.7032308 137.526572,94.7602857 137.526572,94.7602857 L136.06396,92.2349011 L127.38805,98.349 L120.009852,92.2349011 L117.621208,95.1590769 C117.621208,95.1590769 109.128225,92.5007692 109.128225,74.0692308 L109.128225,64.6771868 C109.128225,67.1916044 115.459836,66.8934066 115.459836,71.4012637" id="Shape" fill="#FFFFFF"></path>
            <path d="M158.052941,33.5432967 C158.052941,31.6698809 156.926228,29.9809337 155.198187,29.2640085 C153.470146,28.5470834 151.481084,28.9433663 150.158499,30.2680713 C148.835913,31.5927763 148.440264,33.5850254 149.156042,35.3158359 C149.87182,37.0466464 151.558065,38.1751648 153.428484,38.1751648 C154.654996,38.1752639 155.831303,37.6872968 156.698578,36.8186315 C157.565853,35.9499663 158.05304,34.7717749 158.052941,33.5432967" id="Shape" fill="#FFFFFF"></path>
            <path d="M144.994055,32.3138571 L144.994055,28.0424945 C144.994055,26.5276563 146.220109,25.2996374 147.732524,25.2996374 C149.244938,25.2996374 150.470992,26.5276563 150.470992,28.0424945 L150.470992,29.7907802 L156.666558,29.9906923 L156.666558,24.9398022 C156.666558,11.8275487 146.053984,1.19796703 132.96271,1.19796703 C119.871436,1.19796703 109.258862,11.8275487 109.258862,24.9398022 L109.258862,38.9692637 L144.994055,38.9692637 L144.994055,27.7277912 C144.837261,25.7954002 143.924524,24.0033274 142.45463,22.7418681" id="Shape" fill="#FB5956"></path>
            <path d="M146.840898,51.5374505 L120.627324,51.5374505 C120.021389,51.5374505 119.530181,51.0454558 119.530181,50.4385495 C119.530181,49.8316431 120.021389,49.3396484 120.627324,49.3396484 L146.840898,49.3396484 C148.115294,49.3382499 149.148131,48.3039985 149.149824,47.0275604 L149.149824,43.0993077 C149.148131,41.8228696 148.115294,40.7886182 146.840898,40.7872198 L107.052321,40.7872198 C105.777925,40.7886182 104.745088,41.8228696 104.743395,43.0993077 L104.743395,47.0275604 C104.745088,48.3039985 105.777925,49.3382499 107.052321,49.3396484 L116.247322,49.3396484 C116.853257,49.3396484 117.344464,49.8316431 117.344464,50.4385495 C117.344464,51.0454558 116.853257,51.5374505 116.247322,51.5374505 L107.052321,51.5374505 C104.566471,51.5350461 102.551806,49.5173942 102.549109,47.0275604 L102.549109,43.0993077 C102.551806,40.6094739 104.566471,38.591822 107.052321,38.5894176 L146.840898,38.5894176 C149.326748,38.591822 151.341412,40.6094739 151.34411,43.0993077 L151.34411,47.0275604 C151.341412,49.5173942 149.326748,51.5350461 146.840898,51.5374505 Z" id="Shape" fill="#662059"></path>
            <path d="M156.666964,31.0896813 C156.375961,31.0897571 156.096854,30.9740047 155.891083,30.7679044 C155.685313,30.561804 155.569746,30.2822501 155.569821,29.9907802 L155.569821,24.940022 C155.572756,20.8401006 154.462422,16.8165653 152.357683,13.3001429 C152.047493,12.7799163 152.216131,12.1063777 152.734706,11.7943204 C153.253281,11.482263 153.926184,11.6493962 154.239108,12.167978 C156.54855,16.0264572 157.767018,20.4413014 157.764107,24.940022 L157.764107,29.9907802 C157.764183,30.2822501 157.648615,30.561804 157.442845,30.7679044 C157.237074,30.9740047 156.957968,31.0897571 156.666964,31.0896813 Z" id="Shape" fill="#662059"></path>
            <path d="M150.869464,10.481044 C150.551626,10.4814903 150.24932,10.3434119 150.041253,10.1027582 C143.784913,2.88744484 133.683344,0.375923225 124.784464,3.82324176 C124.219654,4.04312695 123.583818,3.76277603 123.364284,3.19706044 C123.144751,2.63134485 123.424653,1.99448959 123.989464,1.7746044 C133.751587,-2.00859107 144.833996,0.745956093 151.697675,8.66151648 C151.979217,8.98656556 152.045495,9.44627183 151.86727,9.837821 C151.689045,10.2293702 151.299097,10.4807452 150.869464,10.481044 Z" id="Shape" fill="#662059"></path>
            <path d="M109.258401,40.0677033 C108.967397,40.0677791 108.688291,39.9520267 108.48252,39.7459263 C108.27675,39.539826 108.161182,39.2602721 108.161258,38.9688022 L108.161258,24.9395714 C108.142691,17.3261536 111.628113,10.1289697 117.609117,5.43031868 C117.916876,5.1872446 118.330727,5.1270851 118.694778,5.27250168 C119.058828,5.41791827 119.31777,5.7468187 119.374063,6.13530938 C119.430355,6.52380005 119.275446,6.91285998 118.967687,7.15593407 C113.515859,11.4391002 110.338776,17.9996144 110.355544,24.9395714 L110.355544,38.9688022 C110.355619,39.2602721 110.240052,39.539826 110.034282,39.7459263 C109.828511,39.9520267 109.549404,40.0677791 109.258401,40.0677033 Z" id="Shape" fill="#662059"></path>
            <path d="M144.993748,40.0677033 C144.702745,40.0677791 144.423638,39.9520267 144.217867,39.7459263 C144.012097,39.539826 143.89653,39.2602721 143.896605,38.9688022 L143.896605,27.7275714 C143.896605,27.1206651 144.387813,26.6286703 144.993748,26.6286703 C145.599683,26.6286703 146.090891,27.1206651 146.090891,27.7275714 L146.090891,38.9688022 C146.090967,39.2602721 145.975399,39.539826 145.769629,39.7459263 C145.563858,39.9520267 145.284752,40.0677791 144.993748,40.0677033 Z" id="Shape" fill="#662059"></path>
            <path d="M144.993748,33.4125604 C144.702745,33.4126363 144.423638,33.2968838 144.217867,33.0907835 C144.012097,32.8846831 143.89653,32.6051293 143.896605,32.3136593 L143.896605,28.0425385 C143.896605,26.669973 144.627688,25.4016702 145.814463,24.7153874 C147.001238,24.0291047 148.463404,24.0291047 149.650179,24.7153874 C150.836953,25.4016702 151.568037,26.669973 151.568037,28.0425385 L151.568037,29.7906923 C151.568037,30.3975986 151.076829,30.8895934 150.470894,30.8895934 C149.864958,30.8895934 149.373751,30.3975986 149.373751,29.7906923 L149.373751,28.0425385 C149.373751,27.134549 148.638858,26.398478 147.732321,26.398478 C146.825784,26.398478 146.090891,27.134549 146.090891,28.0425385 L146.090891,32.3136593 C146.090967,32.6051293 145.975399,32.8846831 145.769629,33.0907835 C145.563858,33.2968838 145.284752,33.4126363 144.993748,33.4125604 Z" id="Shape" fill="#662059"></path>
            <path d="M153.428034,39.2740769 C150.268095,39.2736339 147.706791,36.7075849 147.707136,33.5425825 C147.707481,30.3775801 150.269346,27.8120919 153.429285,27.8123407 C156.589223,27.8125895 159.150685,30.3784811 159.150533,33.5434835 C159.150533,34.1503898 158.659326,34.6423846 158.053391,34.6423846 C157.447455,34.6423846 156.956248,34.1503898 156.956248,33.5434835 C156.956545,31.5920795 155.377391,30.0099128 153.429109,30.0096155 C151.480827,30.0093181 149.901192,31.5910026 149.900895,33.5424066 C149.900598,35.4938107 151.479752,37.0759773 153.428034,37.0762747 C154.033969,37.0762747 154.525177,37.5682695 154.525177,38.1751758 C154.525177,38.7820821 154.033969,39.2740769 153.428034,39.2740769 Z" id="Shape" fill="#662059"></path>
            <path d="M115.274463,27.1174835 C114.98346,27.1175593 114.704353,27.0018069 114.498582,26.7957066 C114.292812,26.5896062 114.177245,26.3100523 114.17732,26.0185824 L114.17732,25.3902527 C114.189341,14.7051253 122.834648,6.04620415 133.50268,6.03446154 C134.108615,6.03446154 134.599823,6.52645632 134.599823,7.13336264 C134.599823,7.74026896 134.108615,8.23226374 133.50268,8.23226374 C124.046105,8.24300632 116.382628,15.9185235 116.371606,25.3902527 L116.371606,26.0185824 C116.371682,26.3100523 116.256114,26.5896062 116.050344,26.7957066 C115.844573,27.0018069 115.565467,27.1175593 115.274463,27.1174835 Z" id="Shape" fill="#FFFFFF"></path>
            <path d="M115.275538,34.5399011 C114.984535,34.5399769 114.705428,34.4242245 114.499658,34.2181241 C114.293887,34.0120238 114.17832,33.7324699 114.178395,33.441 L114.178395,30.9974505 C114.178395,30.3905442 114.669603,29.8985495 115.275538,29.8985495 C115.881474,29.8985495 116.372681,30.3905442 116.372681,30.9974505 L116.372681,33.441 C116.372757,33.7324699 116.25719,34.0120238 116.051419,34.2181241 C115.845648,34.4242245 115.566542,34.5399769 115.275538,34.5399011 Z" id="Shape" fill="#FFFFFF"></path>
            <path d="M141.196613,47.6703736 L135.62304,47.6703736 C135.017105,47.6703736 134.525897,47.1783788 134.525897,46.5714725 C134.525897,45.9645662 135.017105,45.4725714 135.62304,45.4725714 L141.196613,45.4725714 C141.802549,45.4725714 142.293756,45.9645662 142.293756,46.5714725 C142.293756,47.1783788 141.802549,47.6703736 141.196613,47.6703736 Z" id="Shape" fill="#662059"></path>
            <path d="M126.946593,99.0246813 C126.691197,99.0246497 126.443795,98.9354741 126.246945,98.7724945 L119.718725,93.3627692 L118.028028,95.4317912 C117.744766,95.779217 117.278928,95.9190223 116.851595,95.7848571 C116.474452,95.6662747 107.590162,92.6662967 107.590162,73.6458681 L107.590162,50.4761099 C107.590162,49.8692036 108.08137,49.3772088 108.687305,49.3772088 C109.29324,49.3772088 109.784448,49.8692036 109.784448,50.4761099 L109.784448,73.6458571 C109.784448,87.909033 115.023733,92.272978 116.877301,93.3702747 L118.720161,91.1155934 C118.905101,90.8893556 119.172425,90.7462568 119.462984,90.7179593 C119.753542,90.6896618 120.043382,90.7784985 120.268372,90.9648132 L127.000155,96.5440989 L134.991941,90.9127582 C135.243604,90.7354992 135.558008,90.672212 135.858503,90.7383257 C136.158999,90.8044393 136.417976,90.9938792 136.572299,91.2604615 L137.532299,92.919011 C139.618373,91.7621648 145.011939,87.5844066 145.011939,75.3301538 L145.011939,50.4304945 C145.011939,49.8235882 145.503146,49.3315934 146.109082,49.3315934 C146.715017,49.3315934 147.206224,49.8235882 147.206224,50.4304945 L147.206224,75.3301538 C147.206224,91.8780549 137.835527,95.2429121 137.436935,95.3781209 C136.942348,95.5454558 136.398513,95.3408558 136.136218,94.8887692 L135.274785,93.4003187 L127.577648,98.8244945 C127.39295,98.9548271 127.172526,99.0247514 126.946593,99.0246813 Z" id="Shape" fill="#662059"></path>
            <path d="M121.559468,61.4114615 C121.268464,61.4115374 120.989358,61.2957849 120.783587,61.0896846 C120.577817,60.8835842 120.462249,60.6040304 120.462325,60.3125604 C120.454273,59.1160324 119.483575,58.1503104 118.288934,58.1503104 C117.094294,58.1503104 116.123596,59.1160324 116.115544,60.3125604 C116.115544,60.9194668 115.624336,61.4114615 115.018401,61.4114615 C114.412466,61.4114615 113.921258,60.9194668 113.921258,60.3125604 C113.932689,57.9046128 115.884812,55.9586357 118.288934,55.9586357 C120.693057,55.9586357 122.64518,57.9046128 122.656611,60.3125604 C122.656686,60.6040304 122.541119,60.8835842 122.335349,61.0896846 C122.129578,61.2957849 121.850471,61.4115374 121.559468,61.4114615 Z" id="Shape" fill="#662059"></path>
            <path d="M138.893041,61.4114615 C138.602038,61.4115374 138.322931,61.2957849 138.117161,61.0896846 C137.91139,60.8835842 137.795823,60.6040304 137.795899,60.3125604 C137.787846,59.1160324 136.817149,58.1503104 135.622508,58.1503104 C134.427867,58.1503104 133.457169,59.1160324 133.449117,60.3125604 C133.449117,60.9194668 132.95791,61.4114615 132.351974,61.4114615 C131.746039,61.4114615 131.254832,60.9194668 131.254832,60.3125604 C131.266262,57.9046128 133.218386,55.9586357 135.622508,55.9586357 C138.02663,55.9586357 139.978753,57.9046128 139.990184,60.3125604 C139.99026,60.6040304 139.874693,60.8835842 139.668922,61.0896846 C139.463152,61.2957849 139.184045,61.4115374 138.893041,61.4114615 Z" id="Shape" fill="#662059"></path>
            <path d="M108.686943,64.2538022 C108.686943,66.7682088 115.018555,66.470011 115.018555,70.9778681" id="Shape" fill="#FFFFFF"></path>
            <path d="M115.018401,72.0769231 C114.727397,72.0769989 114.448291,71.9612465 114.24252,71.7551461 C114.03675,71.5490457 113.921182,71.2694919 113.921258,70.978022 C113.921258,69.2180659 112.643087,68.4668571 110.691972,67.5208791 C109.238038,66.8163626 107.590184,66.0179341 107.590184,64.2536923 C107.590184,63.646786 108.081392,63.1547912 108.687327,63.1547912 C109.293262,63.1547912 109.78447,63.646786 109.78447,64.2536923 C109.78447,64.6394835 110.817331,65.1406484 111.647682,65.5425385 C113.533396,66.4568242 116.115544,67.7086813 116.115544,70.978022 C116.115619,71.2694919 116.000052,71.5490457 115.794282,71.7551461 C115.588511,71.9612465 115.309404,72.0769989 115.018401,72.0769231 Z" id="Shape" fill="#662059"></path>
            <path d="M146.109038,64.2538022 C146.109038,66.7682088 139.777426,66.470011 139.777426,70.9778681" id="Shape" fill="#FFFFFF"></path>
            <path d="M139.776965,72.0769231 C139.485962,72.0769989 139.206855,71.9612465 139.001085,71.7551461 C138.795314,71.5490457 138.679747,71.2694919 138.679823,70.978022 C138.679823,67.7086813 141.263035,66.4568571 143.148749,65.5425385 C143.97911,65.1401099 145.011961,64.6394835 145.011961,64.2536923 C145.011961,63.646786 145.503168,63.1547912 146.109104,63.1547912 C146.715039,63.1547912 147.206246,63.646786 147.206246,64.2536923 C147.206246,66.0179451 145.558338,66.8163297 144.104459,67.5208791 C142.153388,68.4668571 140.874097,69.2180549 140.874097,70.978022 C140.874173,71.26949 140.758607,71.5490422 140.552839,71.7551422 C140.347071,71.9612423 140.067967,72.076996 139.776965,72.0769231 Z" id="Shape" fill="#662059"></path>
            <path d="M130.754918,80.3720989 C130.754919,81.5423244 130.13161,82.6236575 129.119786,83.2087703 C128.107963,83.7938832 126.861345,83.7938832 125.849521,83.2087703 C124.837698,82.6236575 124.214389,81.5423244 124.214389,80.3720989 L124.214389,75.8209341 L130.80508,75.8209341 L130.754918,80.3720989 Z" id="Shape" fill="#C93E4F"></path>
            <path d="M127.484467,84.7464725 C125.073615,84.7439226 123.119869,82.7870451 123.117323,80.3723297 C123.117323,79.7654234 123.608531,79.2734286 124.214466,79.2734286 C124.820401,79.2734286 125.311609,79.7654234 125.311609,80.3723297 C125.311609,81.5742894 126.284431,82.5486703 127.484467,82.5486703 C128.684504,82.5486703 129.657326,81.5742894 129.657326,80.3723297 C129.657326,79.7654234 130.148533,79.2734286 130.754469,79.2734286 C131.360404,79.2734286 131.851611,79.7654234 131.851611,80.3723297 C131.849066,82.7870451 129.895319,84.7439226 127.484467,84.7464725 Z" id="Shape" fill="#662059"></path>
            <path d="M108.529821,61.8745275 C105.862434,61.8745275 103.700089,59.7087172 103.700089,57.0370549 C103.700089,54.3653926 105.862434,52.1995824 108.529821,52.1995824 C109.135757,52.1995824 109.626964,52.6915772 109.626964,53.2984835 C109.626964,53.9053898 109.135757,54.3973846 108.529821,54.3973846 C107.074304,54.3973848 105.894375,55.5792054 105.894375,57.0370549 C105.894375,58.4949045 107.074304,59.6767251 108.529821,59.6767253 C109.135757,59.6767253 109.626964,60.1687201 109.626964,60.7756264 C109.626964,61.3825327 109.135757,61.8745275 108.529821,61.8745275 Z" id="Shape" fill="#662059"></path>
            <path d="M146.357683,61.8745275 C145.751748,61.8745275 145.26054,61.3825327 145.26054,60.7756264 C145.26054,60.1687201 145.751748,59.6767253 146.357683,59.6767253 C147.8132,59.6767251 148.99313,58.4949045 148.99313,57.0370549 C148.99313,55.5792054 147.8132,54.3973848 146.357683,54.3973846 C145.751748,54.3973846 145.26054,53.9053898 145.26054,53.2984835 C145.26054,52.6915772 145.751748,52.1995824 146.357683,52.1995824 C149.025071,52.1995824 151.187416,54.3653926 151.187416,57.0370549 C151.187416,59.7087172 149.025071,61.8745275 146.357683,61.8745275 Z" id="Shape" fill="#662059"></path>
            <path d="M116.771383,80.353956 C120.438265,80.3062346 124.055881,79.5012412 127.39799,77.9893187 L127.379525,77.9893187 C143.613466,84.8122967 149.452372,74.7101099 149.452372,74.7101099 C146.355983,75.3297363 144.055801,73.6474725 137.509149,69.5713626 C130.962498,65.4952527 127.379525,70.8119011 127.379525,70.8119011 L127.39799,70.8119011 C127.39799,70.8119011 123.815029,65.4952967 117.268367,69.5713626 C110.721704,73.6474286 108.421533,75.3297363 105.325144,74.7101099 C106.818855,76.9123772 108.987636,78.5678528 111.50377,79.4263846" id="Shape" fill="#FFFFFF"></path>
            <path d="M117.015541,81.4546044 C116.928757,81.4546044 116.843037,81.4540659 116.757328,81.453 C116.151393,81.4491461 115.663305,80.9540272 115.667152,80.3471209 C115.671,79.7402146 116.165327,79.2513439 116.771262,79.2551978 C116.850553,79.260022 116.935186,79.2568022 117.016616,79.2568022 C120.40646,79.1647141 123.745437,78.4082009 126.844822,77.030022 C127.155092,76.8629915 127.525204,76.8497115 127.846612,76.9940769 C138.811611,81.5876813 144.644473,78.180978 147.091595,75.8479231 C144.884451,75.4830879 142.563686,74.030011 138.53624,71.5081209 L136.929101,70.5041978 C131.81839,67.3201758 128.925531,70.5862967 128.380164,71.301011 L128.36623,71.3273077 C128.157357,71.6604839 127.793179,71.8638673 127.400405,71.8666939 C127.007631,71.8695205 126.640573,71.6713994 126.426942,71.3412637 C125.901937,70.6313736 123.034796,67.2751099 117.848009,70.5042088 L116.246181,71.5049121 C112.233677,74.0176813 109.914043,75.4701868 107.714392,75.8430989 C108.916567,76.9666438 110.333683,77.8344111 111.880112,78.393967 C112.248351,78.5285403 112.516939,78.8496594 112.584702,79.2363619 C112.652464,79.6230644 112.509106,80.016601 112.208628,80.2687301 C111.908151,80.5208593 111.496205,80.5932767 111.127965,80.4587033 C108.369183,79.5141213 105.996766,77.687653 104.375819,75.2603846 C104.159858,74.8866665 104.182443,74.4209036 104.433545,74.069906 C104.684647,73.7189083 105.117716,73.5477453 105.540458,73.6324176 C107.942597,74.1142637 109.886175,72.8962418 115.082606,69.6413846 L116.68868,68.637989 C122.074752,65.286022 125.77118,67.6388901 127.389038,69.1670549 C129.00582,67.6378242 132.704399,65.2865604 138.088375,68.637989 L139.698728,69.6445824 C144.894084,72.8967473 146.836586,74.1115495 149.236586,73.6323956 C149.659328,73.5477234 150.092397,73.7188863 150.343499,74.069884 C150.594601,74.4208816 150.617186,74.8866445 150.401225,75.2603626 C149.062351,77.2845752 147.183273,78.8918984 144.977653,79.8995714 C141.648724,81.4953407 135.913366,82.6462857 127.389082,79.1821758 C124.10872,80.5989346 120.586885,81.3704281 117.015541,81.4546044 Z" id="Shape" fill="#662059"></path>
            <path d="M122.815642,66.3973736 C122.815642,68.9270866 124.863098,70.9778242 127.388763,70.9778242 C129.914429,70.9778242 131.961885,68.9270866 131.961885,66.3973736" id="Shape" fill="#F2DDD7"></path>
            <path d="M127.389115,72.0769231 C124.258581,72.0737677 121.721485,69.5328467 121.718038,66.3972967 C121.718038,65.7903904 122.209246,65.2983956 122.815181,65.2983956 C123.421116,65.2983956 123.912324,65.7903904 123.912324,66.3972967 C123.91573,68.3178369 125.471101,69.8729353 127.388571,69.8729353 C129.306042,69.8729353 130.861413,68.3178369 130.864819,66.3972967 C130.864819,65.7903904 131.356027,65.2983956 131.961962,65.2983956 C132.567897,65.2983956 133.059105,65.7903904 133.059105,66.3972967 C133.055786,69.5324751 130.519276,72.0732952 127.389115,72.0769231 Z" id="Shape" fill="#662059"></path>
            <path d="M106.337686,88.2025385 C105.772477,88.2020446 105.300238,87.7713313 105.246972,87.2077363 C102.673404,60.1510549 92.5269723,38.7310659 76.6746514,26.8937363 C76.1888368,26.5310156 76.088579,25.8425108 76.4507192,25.3559176 C76.8128594,24.8693245 77.5002626,24.7689059 77.9860773,25.1316264 C94.3414382,37.3450989 104.799152,59.3166813 107.430539,86.9995385 C107.458299,87.2896586 107.369792,87.578934 107.184509,87.8036625 C106.999226,88.0283909 106.732362,88.1701431 106.442683,88.1977033 C106.407322,88.2009341 106.371972,88.2025385 106.337686,88.2025385 Z" id="Shape" fill="#662059"></path>
            <path d="M73.2541111,24.3498462 C73.0527662,24.3498549 72.8553326,24.2941502 72.6835968,24.1888791 C68.7266349,21.7560341 64.4405007,19.906624 59.9571675,18.6975934 C59.5784017,18.5963754 59.2823204,18.300453 59.1804546,17.9212974 C59.0785888,17.5421419 59.1864144,17.1373558 59.4633145,16.8594183 C59.7402146,16.5814808 60.1441214,16.4726171 60.5228873,16.5738352 C65.2095495,17.8374828 69.6901632,19.7703727 73.8268416,22.313022 C74.2465739,22.569683 74.4445211,23.0747339 74.3112057,23.5488491 C74.1778902,24.0229642 73.7458826,24.3503113 73.2541111,24.3498462 Z" id="Shape" fill="#662059"></path>
            <path d="M2.41447131,58.1378352 C2.34490876,58.1377214 2.27550144,58.1312551 2.20711131,58.1185165 C1.6119888,58.0041799 1.22188418,57.4285294 1.33550811,56.8323516 C7.39926309,25.0817253 33.2003328,12.012967 55.5626496,15.5242967 C55.9503576,15.5844976 56.2764478,15.847508 56.4178515,16.2140658 C56.5592552,16.5806236 56.4944409,16.9949135 56.24787,17.3005792 C56.0012991,17.6062449 55.6105167,17.7567432 55.2230071,17.6952747 C33.9133659,14.354033 9.29354606,26.8647692 3.49121829,57.2455165 C3.39206849,57.7629073 2.94046333,58.1371603 2.41447131,58.1378352 Z" id="Shape" fill="#662059"></path>
            <path d="M14.1557211,45.8884066 C13.762607,45.8877735 13.3998528,45.6765989 13.2047179,45.3347875 C13.0095831,44.992976 13.0118722,44.5727354 13.2107191,44.2330769 C26.3700041,21.7721429 45.7355191,22.0554505 46.5557211,22.0844286 C47.1594376,22.1037274 47.6339984,22.6082071 47.6173314,23.2129686 C47.6006644,23.8177301 47.0990409,24.2952202 46.4951808,24.2811319 C46.2953582,24.2843516 27.5807122,24.0477253 15.1028626,45.3459121 C14.9057453,45.6823898 14.5452212,45.8888874 14.1557211,45.8884066 Z" id="Shape" fill="#FFFFFF"></path>
            <path d="M46.4469723,130.235505 C41.4488481,130.240453 36.4869678,129.385982 31.7775031,127.709319 C21.2925038,123.956571 -2.76642377,110.359769 0.2614272,65.2747802 C0.28764809,64.8831386 0.520481228,64.5352579 0.872220614,64.3621814 C1.22396,64.189105 1.64116805,64.2171272 1.9666865,64.4356924 C2.29220496,64.6542576 2.47657982,65.0301606 2.45035886,65.4218022 C-0.476818286,109.010813 22.5010725,122.054912 32.5157157,125.640297 C48.3391049,131.302209 66.5957157,126.682319 74.9861157,114.89489 C75.3376066,114.400592 76.0226128,114.285281 76.5161198,114.637335 C77.0096268,114.989389 77.1247536,115.675493 76.7732626,116.169791 C70.3880338,125.140231 58.6960786,130.235505 46.4469723,130.235505 Z" id="Shape" fill="#662059"></path>
            <path d="M90.5250048,84.7148242 C90.169211,84.7152646 89.8353025,84.5428423 89.6292864,84.2522967 C87.3784553,81.5389204 84.5291097,79.3863178 81.3058889,77.9641978 C76.0007095,75.4508901 66.8137289,73.1473846 53.1739282,76.4414066 C52.7928654,76.5334222 52.3917376,76.4148277 52.1216459,76.1302965 C51.8515541,75.8457653 51.7535318,75.4385244 51.864503,75.0619777 C51.9754741,74.6854309 52.2785796,74.3967847 52.6596425,74.3047692 C80.2339255,67.648044 90.9760731,82.3522857 91.4201746,82.9816923 C91.6567752,83.3169103 91.6870805,83.7562731 91.4987518,84.1208949 C91.3104231,84.4855167 90.9348726,84.7145808 90.5250048,84.7148242 Z" id="Shape" fill="#662059"></path>
            <path d="M106.809929,100.603527 L108.721854,109.338473 C108.932574,110.301223 108.671713,111.306885 108.019763,112.045148 C107.367813,112.783411 106.403131,113.165545 105.423382,113.073637 L100.264759,112.589714 C99.3468091,112.503605 98.5155333,112.010473 97.9989597,111.24559 C97.4823862,110.480707 97.3347548,109.524386 97.5965623,108.638956 L100.044771,100.359088 C100.507368,98.7945766 101.987762,97.7576519 103.613667,97.8592967 C105.171311,97.9566732 106.475727,99.0766124 106.809929,100.603527 Z" id="Shape" fill="#AF8E77"></path>
            <path d="M105.723758,114.186615 C105.590905,114.186615 105.455901,114.180176 105.320898,114.168374 L100.163043,113.684385 C98.91833,113.567582 97.7911499,112.898908 97.0906634,111.861764 C96.3901769,110.824621 96.1899242,109.527892 96.5448302,108.327242 L98.9930496,100.046846 C99.5880786,98.0343997 101.467839,96.6806883 103.561953,96.7565452 C105.656067,96.832402 107.433285,98.3185832 107.881618,100.368824 L109.79305,109.103154 C110.063755,110.339246 109.761704,111.63165 108.971361,112.618967 C108.181017,113.606283 106.987207,114.182547 105.723758,114.186615 Z M103.392329,98.9511648 C102.330505,98.9485383 101.394867,99.6494201 101.097326,100.670341 L98.6491063,108.951802 C98.4803186,109.521959 98.5753718,110.137865 98.9081605,110.630365 C99.2409491,111.122865 99.7764828,111.440177 100.367682,111.495154 L105.526612,111.979143 C106.157402,112.038251 106.778464,111.792182 107.198183,111.316855 C107.617903,110.841527 107.785842,110.194062 107.650187,109.57422 L105.738756,100.838813 C105.506124,99.7931022 104.612903,99.026279 103.545567,98.955978 C103.494067,98.9527802 103.442677,98.9512198 103.392329,98.9512198 L103.392329,98.9511648 Z" id="Shape" fill="#662059"></path>
            <path d="M88.0644645,99.5016923 C88.0382098,99.5016923 88.0114286,99.5005934 87.9846473,99.499011 C87.227147,99.4442857 69.3605376,98.0491868 63.1639845,88.3264835 C60.6691584,84.4127253 60.4254171,79.7316593 62.439168,74.4142198 C62.6539721,73.846726 63.2874137,73.5610936 63.8539995,73.7762418 C64.4205853,73.9913901 64.7057608,74.6258469 64.4909568,75.1933407 C62.7364937,79.8266484 62.9121682,83.8471868 65.0132736,87.1438901 C70.6238098,95.9463626 87.9675648,97.2942418 88.142197,97.3065275 C88.7313768,97.3486663 89.1815142,97.8504132 89.1605774,98.4416679 C89.1396406,99.0329227 88.6551443,99.5014673 88.0644645,99.5016923 Z" id="Shape" fill="#662059"></path>
            <path d="M89.5940257,81.2995877 C92.6678141,81.2995877 95.159612,83.7953788 95.159612,86.8740932 L95.159612,94.9835657 C95.159612,98.0622801 92.6678141,100.558071 89.5940257,100.558071 C86.5202312,100.558071 84.0284284,98.0622752 84.0284284,94.9835547 L84.0284284,86.8741042 C84.0284284,83.7953837 86.5202312,81.2995877 89.5940257,81.2995877 Z" id="Shape" fill="#FFFFFF" transform="translate(89.594020, 90.928829) rotate(11.817490) translate(-89.594020, -90.928829) "></path>
            <path d="M88.7673271,101.571791 C88.3079107,101.571734 87.8497417,101.523902 87.4001883,101.429066 L87.4007259,101.429066 C83.7991871,100.674521 81.4902096,97.1386035 82.2434085,93.5312637 L83.9014437,85.5937473 C84.3874153,83.2586639 86.0807672,81.3609291 88.3431076,80.615987 C90.605448,79.8710449 93.0927375,80.3921805 94.8672705,81.9829262 C96.6418035,83.573672 97.4337227,85.9921194 96.9444754,88.3265165 L95.2869778,96.264033 C94.63729,99.3530179 91.9190534,101.56598 88.7673271,101.571791 Z M90.4141385,82.4826813 C88.3024762,82.4886711 86.4827608,83.9732728 86.0497042,86.0433736 L84.391669,93.9808901 C84.1489185,95.1426221 84.376872,96.3533593 85.0253816,97.3467496 C85.6738912,98.3401399 86.6898336,99.0348085 87.8497097,99.2779341 L87.8502473,99.2779341 C89.0102002,99.5211117 90.2190916,99.292743 91.210919,98.6430778 C92.2027464,97.9934125 92.8962441,96.9756814 93.138816,95.8138242 L94.7968512,87.8768352 C95.0704803,86.5561513 94.7359053,85.1822595 93.8858909,84.136087 C93.0358766,83.0899145 91.7607688,82.4826562 90.4141056,82.4826813 L90.4141385,82.4826813 Z" id="Shape" fill="#662059"></path>
            <path d="M102.850747,86.8504286 C102.850747,86.8504286 113.114518,86.8103297 110.554533,96.436022 C108.158219,105.446385 93.4782501,99.4347363 93.4782501,99.4347363 C93.4782501,99.4347363 94.6313472,94.7921209 95.9235072,87.6066813 C97.2156672,80.4212418 104.847525,81.443033 106.338926,87.1037143" id="Shape" fill="#C93E4F"></path>
            <path d="M102.821255,102.494692 C99.4762173,102.374635 96.1761741,101.683626 93.0632667,100.451429 C92.5587037,100.2453 92.282052,99.6991163 92.4139776,99.1695604 C92.4252233,99.1234066 93.5738002,94.4734725 94.8434469,87.4116374 C95.6095159,83.1517912 98.3652754,81.5345604 100.689167,81.4417253 C103.855884,81.4271197 106.617264,83.5947632 107.359883,86.6781429 C108.642739,87.1826846 109.771525,88.0145364 110.634174,89.0911099 C112.119179,91.0179451 112.449178,93.5843736 111.615601,96.719033 C111.129531,98.7940249 109.739824,100.541217 107.829175,101.479473 C106.259196,102.196547 104.546068,102.543837 102.821255,102.494692 Z M94.7710793,98.7413626 C97.0376887,99.5301209 103.157639,101.353934 106.855186,99.5097363 C108.198189,98.8503345 109.169424,97.6155917 109.495186,96.1534725 C110.1434,93.7147473 109.941976,91.7900659 108.897331,90.4336044 C106.975137,87.9390989 102.864143,87.9578571 102.855541,87.9492747 L102.851251,87.9492747 C102.245316,87.9504612 101.753148,87.4594283 101.751963,86.852522 C101.750779,86.2456157 102.241026,85.752659 102.846961,85.7514725 C103.456859,85.7611399 104.065097,85.8180089 104.666244,85.9215714 C103.863417,84.5252479 102.384498,83.6569147 100.775885,83.6373846 C98.8687433,83.7135824 97.4587392,85.2701758 97.003381,87.8011868 C96.0562505,93.0687253 95.1733906,97.0152088 94.7710793,98.7413297 L94.7710793,98.7413626 Z" id="Shape" fill="#662059"></path>
        </g>
    </g>
</svg>